<svg id="Layer_1" data-name="Layer 1" xmlns="http://www.w3.org/2000/svg" width="197.69678" height="26.22919" viewBox="0 0 197.69678 26.22919"><defs><style>.cls-1{fill:#231f20;}</style></defs><title>Alcantara_new19_2</title><polygon class="cls-1" points="38.502 26.229 22.929 26.229 22.929 0.049 28.504 0.049 28.504 21.837 38.502 21.837 38.502 26.229"/><polygon class="cls-1" points="129.461 0.049 129.461 4.543 124.224 4.543 124.224 26.206 118.648 26.206 118.648 4.543 113.411 4.543 113.411 0.049 129.461 0.049"/><path class="cls-1" d="M12.65218,1.704h-2.604L1.15161,27.817H6.72735l1.07294-3.17559H12.661l4.15575-.00016L17.7891,27.817h3.32631ZM9.39755,20.08l2.95219-8.13781L15.077,20.08Z" transform="translate(-1.15161 -1.6112)"/><path class="cls-1" d="M80.24508,1.704h-2.604L68.7445,27.817h5.57575l1.07294-3.17559h4.86066l4.15581-.00016L85.382,27.817h3.3263ZM76.99045,20.08l2.95221-8.13781L82.6699,20.08Z" transform="translate(-1.15161 -1.6112)"/><path class="cls-1" d="M145.84787,1.68215h-2.604l-8.89651,26.113h5.57574l1.07294-3.17559h4.86068l4.15574-.00017.97238,3.17576h3.32629ZM142.5933,20.05823l2.95219-8.13784,2.72725,8.13784Z" transform="translate(-1.15161 -1.6112)"/><path class="cls-1" d="M190.38515,1.68215h-2.604l-8.89655,26.113h5.57574l1.07293-3.17559H190.394l4.15575-.00017.97237,3.17576h3.3263Zm-3.2546,18.37608,2.95221-8.13784L192.81,20.05823Z" transform="translate(-1.15161 -1.6112)"/><polygon class="cls-1" points="105.17 0.019 109.715 0.019 109.715 26.176 105.879 26.176 96.881 10.11 96.881 26.206 91.305 26.206 91.305 0.089 97.862 0.089 105.144 13.097 105.17 0.019"/><path class="cls-1" d="M55.72289,22.863a8.12437,8.12437,0,1,1-.21547-16.24731q.10773-.00142.21547,0A8.256,8.256,0,0,1,61.1507,8.64172l3.18154-3.18178A12.81759,12.81759,0,0,0,60.0026,2.57453a13.12842,13.12842,0,0,0-4.91854-.96333,13.26318,13.26318,0,0,0-4.93613.96333,12.76108,12.76108,0,0,0-4.34651,2.88541,12.90134,12.90134,0,0,0-2.83295,4.22359,13.03773,13.03773,0,0,0-.97978,5.0418,12.94681,12.94681,0,0,0,.97978,5.00732,13.28514,13.28514,0,0,0,2.83295,4.25921,12.55765,12.55765,0,0,0,4.32967,2.86742,13.39986,13.39986,0,0,0,9.88948,0,12.62175,12.62175,0,0,0,4.31165-2.86742L61.17866,20.8118A8.25534,8.25534,0,0,1,55.72289,22.863Z" transform="translate(-1.15161 -1.6112)"/><path class="cls-1" d="M169.34664,19.20235a15.59148,15.59148,0,0,0,3.42454-3.849,8.6527,8.6527,0,0,0,.89213-3.89623,8.52437,8.52437,0,0,0-.83737-3.73732,9.73669,9.73669,0,0,0-2.31607-3.06041,11.60873,11.60873,0,0,0-3.43943-2.10008,13.119,13.119,0,0,0-4.44368-.899h-4.54068V27.817h4.564V21.15a6.31142,6.31142,0,0,0,1.17733-.02279q.46234-.03562.92659-.10682l4.20443,6.77053h6.13147Zm-.93139-5.58906a4.9885,4.9885,0,0,1-1.36078,1.5249,7.199,7.199,0,0,1-2.01427,1.0527,8.17532,8.17532,0,0,1-2.41345.446V6.93823a8.24091,8.24091,0,0,1,2.41345.445,7.20159,7.20159,0,0,1,2.01427,1.0537,5.12347,5.12347,0,0,1,1.36078,1.49973,3.15548,3.15548,0,0,1,.48792,1.70909A4.12581,4.12581,0,0,1,168.41525,13.61329Z" transform="translate(-1.15161 -1.6112)"/></svg>